<svg width="36" height="36" viewBox="0 0 36 36" fill="none" xmlns="http://www.w3.org/2000/svg">
<g clip-path="url(#clip0_7_12)">
<path fill-rule="evenodd" clip-rule="evenodd" d="M16.016 0C15.554 0 15.1109 0.183531 14.7842 0.51022C14.4575 0.836908 14.274 1.27999 14.274 1.742C14.274 2.20401 14.4575 2.64709 14.7842 2.97378C15.1109 3.30047 15.554 3.484 16.016 3.484H19.5V6.968H16.786C15.6889 6.96761 14.6195 7.31248 13.7294 7.95374C12.8393 8.59499 12.1735 9.50011 11.8265 10.5408L9.67338 17.0037C9.25935 18.2462 9.04818 19.5473 9.048 20.857V29.614C9.048 31 9.5986 32.3293 10.5787 33.3093C11.5587 34.2894 12.888 34.84 14.274 34.84H28.21C29.596 34.84 30.9253 34.2894 31.9053 33.3093C32.8854 32.3293 33.436 31 33.436 29.614V20.8587C33.4356 19.5478 33.2239 18.2454 32.8089 17.0019L30.6558 10.5408C30.309 9.50096 29.644 8.59644 28.755 7.95526C27.8659 7.31409 26.7977 6.96871 25.7015 6.968H22.984V3.484C23.446 3.484 23.8891 3.30047 24.2158 2.97378C24.5425 2.64709 24.726 2.20401 24.726 1.742C24.726 1.27999 24.5425 0.836908 24.2158 0.51022C23.8891 0.183531 23.446 0 22.984 0H16.016ZM17.758 19.162H12.6992C12.9344 17.9722 13.4047 16.8242 13.788 15.678H17.758C18.22 15.678 18.6631 15.8615 18.9898 16.1882C19.3165 16.5149 19.5 16.958 19.5 17.42C19.5 17.882 19.3165 18.3251 18.9898 18.6518C18.6631 18.9785 18.22 19.162 17.758 19.162Z" fill="#698468" fill-opacity="0.3"/>
<path fill-rule="evenodd" clip-rule="evenodd" d="M12.532 0C12.07 0 11.6269 0.183531 11.3002 0.51022C10.9735 0.836908 10.79 1.27999 10.79 1.742C10.79 2.20401 10.9735 2.64709 11.3002 2.97378C11.6269 3.30047 12.07 3.484 12.532 3.484H16.016V6.968H13.302C12.2049 6.96761 11.1355 7.31248 10.2454 7.95374C9.35527 8.59499 8.68952 9.50011 8.34248 10.5408L6.18937 17.0037C5.77534 18.2462 5.56417 19.5473 5.564 20.857V29.614C5.564 31 6.11459 32.3293 7.09465 33.3093C8.07472 34.2894 9.40397 34.84 10.79 34.84H24.726C26.112 34.84 27.4413 34.2894 28.4213 33.3093C29.4014 32.3293 29.952 31 29.952 29.614V20.8587C29.9516 19.5478 29.7399 18.2454 29.3249 17.0019L27.1718 10.5408C26.825 9.50096 26.16 8.59644 25.271 7.95526C24.3819 7.31409 23.3137 6.96871 22.2175 6.968H19.5V3.484C19.962 3.484 20.4051 3.30047 20.7318 2.97378C21.0585 2.64709 21.242 2.20401 21.242 1.742C21.242 1.27999 21.0585 0.836908 20.7318 0.51022C20.4051 0.183531 19.962 0 19.5 0H12.532ZM14.274 19.162H9.21523C9.4504 17.9722 9.92074 16.8242 10.304 15.678H14.274C14.736 15.678 15.1791 15.8615 15.5058 16.1882C15.8325 16.5149 16.016 16.958 16.016 17.42C16.016 17.882 15.8325 18.3251 15.5058 18.6518C15.1791 18.9785 14.736 19.162 14.274 19.162Z" fill="#698468"/>
</g>
<defs>
<clipPath id="clip0_7_12">
<rect width="36" height="36" fill="white"/>
</clipPath>
</defs>
</svg>
