<svg width="36" height="36" viewBox="0 0 36 36" fill="none" xmlns="http://www.w3.org/2000/svg">
<path d="M7.8391 6.68839C7.82746 6.33956 7.88526 5.99193 8.00904 5.66621C8.13283 5.34048 8.32007 5.04334 8.5596 4.79247C8.79914 4.54161 9.08607 4.34216 9.40331 4.20601C9.72054 4.06986 10.0616 3.9998 10.4061 4H18.85C20.244 4 21.383 5.12633 21.4102 6.542C21.4697 9.58689 21.8658 20.4403 24.4362 31.5556H26.1362C24.5025 24.4876 23.7477 17.5263 23.3992 12.6111H25.5378C27.078 12.6111 28.1813 13.9424 28.1388 15.3581C28.081 17.3576 28.2408 22.9944 31.1087 31.5556H33.3C33.7509 31.5556 34.1833 31.737 34.5021 32.06C34.8209 32.383 35 32.821 35 33.2778C35 33.7345 34.8209 34.1726 34.5021 34.4956C34.1833 34.8186 33.7509 35 33.3 35H2.7C2.24913 35 1.81673 34.8186 1.49792 34.4956C1.17911 34.1726 1 33.7345 1 33.2778C1 32.821 1.17911 32.383 1.49792 32.06C1.81673 31.737 2.24913 31.5556 2.7 31.5556H4.8369C7.9904 20.5609 7.936 9.79528 7.8391 6.68839Z" fill="#698468"/>
</svg>
